<?xml version="1.0" encoding="utf-8"?>
<!-- Generator: Adobe Illustrator 23.0.1, SVG Export Plug-In . SVG Version: 6.00 Build 0)  -->
<svg version="1.1" id="Layer_1" xmlns="http://www.w3.org/2000/svg" xmlns:xlink="http://www.w3.org/1999/xlink" x="0px" y="0px"
	 viewBox="0 0 760 360" style="enable-background:new 0 0 760 360;" xml:space="preserve">
<style type="text/css">
	.st0{fill:#C62A2A;}
	.st1{fill:none;stroke:#4267B2;stroke-width:2.6294;stroke-miterlimit:10;}
	.st2{fill:#4267B2;}
</style>
<path class="st0" d="M85.9,128.5c0,0,21.7-3.4,29.3-9.5c0,0,3.2,4.1,5.7,4.1c0,0-12.9,8-19.6,9.5c-6.7,1.3-10.8,1.3-10.8,1.3
	L85.9,128.5z"/>
<path class="st0" d="M95.7,136c0,0,23.1-5.7,29.3-12.6c0,0,4.1,9.2,9.3,7.8c0,0-23.7,14.1-30.9,12.6
	C103.4,143.8,98.8,142.4,95.7,136z"/>
<path class="st0" d="M128.1,123.4c0,0,16.4-11.3,22.6-16.2s7.8-7.1,11.8-7.8s4.1-0.7,4.1-0.7l1.1,7.8c0,0-27.9,19.7-29.8,21.2
	c0,0-2.1,1.4-4.6,0.7C130.7,127.6,129.7,126.1,128.1,123.4z"/>
<path class="st0" d="M108.6,145.9c0,0,23.1-8.4,28.3-13.4c0,0,6.2,8.4,13.9,5.7c0,0-24.2,16.8-33.5,14.1
	C117.3,152.3,111.6,153,108.6,145.9z"/>
<path class="st0" d="M137.9,130.5c0,0,18.5-15.5,21.7-17.6s6.7-3.5,8.8-3.5l2.6,4.2c0,0-17.5,21.2-20.1,21.8
	C150.8,135.3,142,137.4,137.9,130.5z"/>
<path class="st0" d="M125.1,153.6c0,0,23.1-6.3,27.3-12.6c0,0,5.1,4.9,7.8,3.5c0,0-15.9,16.2-20.6,16.8c-4.6,0.7-9.3,1.4-12.9-2.8
	L125.1,153.6z"/>
<path class="st0" d="M152.8,137.4l19.6-19.7c0,0,4.1,6.3,5.7,7.1c1.6,0.8-10.8,14.7-13.4,15.5C162,141,162,141,162,141
	S157.5,143.1,152.8,137.4z"/>
<path class="st0" d="M142,162.8l22.6-19.7c0,0,1.1,9.2,8.8,4.2l-2.1,4.9c0,0-5.9,1.4-10.8,1.4c-0.5,0-6.7,7.8-7.2,12.6
	c0,0-5.1,2.8-8.3,0.7C145.2,167,143.1,167,142,162.8z"/>
<path class="st0" d="M166.2,141.6c0,0,12.9-12,14.5-15.5l4.1,1.4c0,0-3.2,14.7-10.8,16.8C174,144.5,166.2,150.2,166.2,141.6z"/>
<path class="st0" d="M116.8,117.1c0,0,32.5-22.5,37.1-23.9c0,0,4.6-2.1,10.3,1.4l1.1,1.4c0,0-17,9.9-21.2,13.4s-9.3,7.8-13.4,9.9
	C126.6,121.3,123.5,124,116.8,117.1z"/>
<path class="st0" d="M80.7,121.9c18.3-5,36.4-12.9,52.3-26.6c7.5-6.4,16.2-12.1,25-13.8c11.8-2.2,16.8,8.3,18,23.4
	c0,0,2.1,11.3,8.3,13.4v5.7c0,0-10.3,2.8-15.9-23.9c0,0-2.1-15.5-17.5-8.4c-6,3.7-12.1,7.5-18,11.7c-15,10.8-31.3,22.7-48.9,22.7
	C83.9,126.1,80.7,121.9,80.7,121.9z"/>
<path class="st0" d="M285.7,128.5c0,0-21.7-3.4-29.3-9.5c0,0-3.2,4.1-5.7,4.1c0,0,12.9,8,19.6,9.5c6.7,1.3,10.8,1.3,10.8,1.3
	L285.7,128.5z"/>
<path class="st0" d="M275.5,136c0,0-23.1-5.7-29.3-12.6c0,0-4.1,9.2-9.3,7.8c0,0,23.7,14.1,30.9,12.6
	C267.7,143.8,272.3,142.4,275.5,136z"/>
<path class="st0" d="M243,123.4c0,0-16.4-11.3-22.6-16.2c-6.2-4.9-7.8-7.1-11.8-7.8c-4.1-0.7-4.1-0.7-4.1-0.7l-1.1,7.8
	c0,0,27.9,19.7,29.8,21.2c0,0,2.1,1.4,4.6,0.7C240.4,127.6,241.4,126.1,243,123.4z"/>
<path class="st0" d="M262.6,145.9c0,0-23.1-8.4-28.3-13.4c0,0-6.2,8.4-13.9,5.7c0,0,24.2,16.8,33.5,14.1
	C253.8,152.3,259.4,153,262.6,145.9z"/>
<path class="st0" d="M233.3,130.5c0,0-18.5-15.5-21.7-17.6s-6.7-3.5-8.8-3.5l-2.6,4.2c0,0,17.5,21.2,20.1,21.8
	C220.4,135.3,229,137.4,233.3,130.5z"/>
<path class="st0" d="M245.6,155.1c0,0-23.1-6.3-27.3-12.6c0,0-5.1,4.9-7.8,3.5c0,0,15.9,16.2,20.6,16.8c4.6,0.7,9.3,1.4,12.9-2.8
	L245.6,155.1z"/>
<path class="st0" d="M218.3,137.4l-19.6-19.7c0,0-4.1,6.3-5.7,7.1c-1.6,0.8,10.8,14.7,13.4,15.5c2.6,0.7,2.6,0.7,2.6,0.7
	S213.7,143.1,218.3,137.4z"/>
<path class="st0" d="M228.5,164.3l-22.6-19.7c0,0-1.1,9.2-8.8,4.2l2.1,4.9c0,0,5.9,1.4,10.8,1.4c0.5,0,6.7,7.8,7.2,12.6
	c0,0,5.1,2.8,8.3,0.7C225.5,168.5,227.5,168.5,228.5,164.3z"/>
<path class="st0" d="M204.9,141.6c0,0-12.9-12-14.5-15.5l-4.1,1.4c0,0,3.2,14.7,10.8,16.8C197.1,144.5,204.9,150.2,204.9,141.6z"/>
<path class="st0" d="M254.3,117.1c0,0-32.5-22.5-37.1-23.9c0,0-4.6-2.1-10.3,1.4l-1.1,1.4c0,0,17,9.9,21.2,13.4s9.3,7.8,13.4,9.9
	C244.6,121.3,247.6,124,254.3,117.1z"/>
<path class="st0" d="M290.3,121.9c-18.3-5-36.4-12.9-52.3-26.6c-7.5-6.4-16.2-12.1-25-13.8c-11.8-2.2-16.8,8.3-18,23.4
	c0,0-2.1,11.3-8.3,13.4v5.7c0,0,10.3,2.8,15.9-23.9c0,0,2.1-15.5,17.5-8.4c6,3.7,12.1,7.5,18,11.7c15,10.8,31.3,22.7,48.9,22.7
	C287.3,126.1,290.3,121.9,290.3,121.9z"/>
<polygon class="st0" points="185.9,319.4 185.9,320.4 183.6,112.9 188.3,112.9 "/>
<path class="st0" d="M192.5,104.6c-0.3,3.8-3.4,6.8-6.7,6.8c-3.5,0-6.3-3.2-6.7-7h-1.2l0,0c0,4.9,3.5,8.8,7.9,8.8
	c4.3,0,7.9-3.9,7.9-8.8h-1.2V104.6z"/>
<ellipse class="st0" cx="185.1" cy="96.8" rx="7.4" ry="10"/>
<path class="st0" d="M176.5,146.5l8-7.8l0.4,15.1l-3,3.2c0,0-5.4-6.7-6.8-5.3C173.4,153.3,176.5,146.5,176.5,146.5z"/>
<path class="st0" d="M194.5,146.8l-7.4-7.2l-0.4,13.9l2.8,2.9c0,0,5-6.3,6.3-4.9C197.2,153,194.5,146.8,194.5,146.8z"/>
<path class="st0" d="M162.7,172.4c1.1,0,2.2,0.7,3.3,1.2c3.4,1.7,6.7,3.5,10.3,2.4c1.7-0.7,3.7-2.5,3.4-5.1c0-0.9-0.4-1.7-0.7-2.5
	c-1.8-4.1-5.1-6.7-8.5-7.2c-3.4-0.7-6.8,0.5-9.9,2.9c-2,1.4-3.7,3.4-4.9,6c-0.8,2-1.2,4.3-1.3,6.6c-0.1,5.4,1.7,10.5,4.5,14.2
	c5.9,7.6,13.9,6.4,21.3,8c6.2,1.3,11.6,3,16.7,8c0,0,5.7,5.7-8.2,16.2l6.8,6.8c1.3,1.3,5.7-3.2,6.4-4.1c9.2-10.6,6-27.7-4.7-32.6
	c-10.8-5-22-3.7-27.6-5.7c-3.2-1.1-9.2-6.3-9.1-11.8C160.9,173.2,161.6,172.4,162.7,172.4z"/>
<path class="st0" d="M175.5,234.3c-2.1,2.5-3.9,5.7-5.1,9.2c-0.9,2.5-1.6,5.4-1.1,8.2c0.5,3.2,2.5,5.5,4.5,7
	c3.5,2.6,7.4,5.4,11.2,6.7c3.4,1.2,9.7,3.2,7.6,10.6c-0.8,2.6-2.6,4.5-4.5,5.4c1.3-0.7,5.1,3.3,6.4,3.9c0,0,6.8-3.7,6.8-11.8
	c0,0-0.4-9.3-9.1-14.3c-8.2-4.7-8.5-5-8.5-5c-1.6-0.9-3.9-2.5-5-4.6c-2.4-5.3,2.6-7.4,5-10.9c-1.8-1.7-3.8-3.3-5.7-5
	c-0.4-0.3-0.7-0.5-1.1-0.5c-0.4,0-0.7,0.4-1.1,0.7C175.8,233.9,175.7,234.1,175.5,234.3z"/>
<path class="st0" d="M174.6,262.9c0,0-9.5,12.5-1.3,19.3s15.5,8.7,16.3,14.3c0,0-5.7,9.3-15.9,15.5l15.5-8.7c0,0,4.3-1.8,6.4-5
	c0,0,5.7-5-4.3-11.8c-9.9-6.8-9.9-6.8-9.9-6.8s-8.2-1.8,0-12.5L174.6,262.9z"/>
<path class="st0" d="M193.2,170.7c3.4-12.2,16.7-11.6,22.1-2.9c2.5,3.9,4.1,10.5,3.2,15.8c-0.8,4.6-3.7,7.2-6.4,9.1
	c-0.8,0.5-6.2,4.2-6.8,3.5c-3-2.8-6.4-6-10-7.4c5.1,1.1,13.7-1.1,16.4-8.8c0.9-2.5,1.3-11.2-6.8-6.2c0,0-5.1,5.7-9.1,3.2
	C195.7,176.9,191.4,176.9,193.2,170.7z"/>
<path class="st0" d="M166.9,201.2c0,4.6-2.6,8.4-1.8,13.8c1.4,10.4,9.3,14.5,15,18.1c2,1.3,17.5,10.1,13.9,16c0,0-3,5-5.7,5.7l7.8,5
	c0,0,11.2-3.7,6-16.2c0,0-5.1-12.5-14.2-16.2c-3.7-1.6-9.2-7.1-11.6-11.6c-1.8-3.5-1.6-13.4,2.6-13.4c2.6,0-12.1-3.2-12.1-3.2
	L166.9,201.2z"/>
<path class="st0" d="M177.2,289c0,0-8.5,6.2,3.4,13c12.1,6.8,15.9,9.3,15.9,9.3s-11.6-8.7-12.9-11.8c-1.3-3.2-2.1-6.8,0-7.5
	L177.2,289z"/>
<ellipse class="st0" cx="173.7" cy="169.3" rx="2" ry="2"/>
<g>
	<g>
		<path class="st0" d="M378.8,177.3c-5.8,0-8.7,0-14.3,0c-1.1,4.7-1.4,7.1-2.5,11.8c-4.5,0-6.7,0-11.2,0c5.3-21,10.6-42.2,15.9-63.2
			c3.9,0,5.9,0,9.9,0c5.4,21,10.8,42.2,16,63.2c-4.5,0-6.7,0-11.3,0C380.2,184.4,379.7,182,378.8,177.3z M366.8,165.6
			c3.7,0,5.7,0,9.3,0c-1.8-8.8-2.8-13.1-4.7-22C369.7,152.4,368.7,156.8,366.8,165.6z"/>
		<path class="st0" d="M403.1,142.2c0.1,2.2,0.3,3.3,0.4,5.5c2.2-4.2,5.3-6.4,9.2-6.4c3.4,0,5.9,1.4,7.5,4.3
			c1.7,2.9,2.5,7.4,2.6,13.1c0,12.1,0,18.1,0,30.2c-4.1,0-6,0-10.1,0c0-11.8,0-17.7,0-29.7c0-2.4-0.4-4.1-1.1-5.3
			c-0.7-1.1-1.8-1.7-3.5-1.7c-2,0-3.4,1.2-4.3,3.4c0,13.3,0,19.9,0,33.1c-4.1,0-6,0-10.1,0c0-15.6,0-31.3,0-46.9
			C397.5,142.2,399.3,142.2,403.1,142.2z"/>
		<path class="st0" d="M427,165.3c0-7.5,1.1-13.3,3.3-17.6c2.2-4.3,5.3-6.4,9.3-6.4c2.9,0,5.4,1.7,7.4,5c0-9.5,0-14.3,0-23.8
			c4.1,0,6,0,10.1,0c0,22.2,0,44.4,0,66.7c-3.7,0-5.4,0-9.1,0c-0.3-2-0.3-3-0.5-5c-2.1,3.9-4.7,5.9-7.9,5.9c-3.8,0-6.8-2.1-9.2-6.4
			C428.2,179.2,427,173.2,427,165.3z M437.2,166.2c0,8.3,1.7,12.5,5,12.5c2.2,0,3.8-1.3,4.7-4.1c0-7.1,0-10.8,0-17.9
			c-0.9-2.8-2.5-4.2-4.7-4.2c-3.2,0-4.7,3.7-5,10.9C437.2,164.7,437.2,165.2,437.2,166.2z"/>
		<path class="st0" d="M482.4,155.5c-1.3-0.1-2-0.3-3.3-0.4c-3.2,0-5.3,1.4-6,4.3c0,11.8,0,17.9,0,29.7c-4.1,0-6,0-10.1,0
			c0-15.6,0-31.3,0-46.9c3.8,0,5.7,0,9.5,0c0.1,2.4,0.3,3.7,0.4,6c1.7-4.6,4.1-7,7.1-7c1.1,0,2,0.1,2.8,0.5
			C482.5,147.3,482.5,149.9,482.4,155.5z"/>
		<path class="st0" d="M483.7,165.2c0-4.7,0.7-8.8,1.8-12.5c1.3-3.7,3-6.4,5.4-8.4s5.1-2.9,8.3-2.9c4.9,0,8.7,2.2,11.4,6.6
			c2.8,4.3,4.2,10.3,4.2,17.7c0,0.3,0,0.3,0,0.5c0,7.4-1.4,13.1-4.2,17.5s-6.6,6.4-11.4,6.4c-4.6,0-8.3-2-11-6s-4.3-9.5-4.5-16.3
			C483.7,166.8,483.7,166.2,483.7,165.2z M493.8,166.1c0,4.3,0.5,7.5,1.4,9.6c0.9,2,2.4,3,4.2,3c3.5,0,5.4-3.9,5.5-12
			c0-0.5,0-0.9,0-1.4c0-8.4-1.8-12.6-5.5-12.6c-3.4,0-5.3,3.7-5.5,10.9C493.8,164.5,493.8,165,493.8,166.1z"/>
		<path class="st0" d="M571.5,189.1c-4.2,0-6.3,0-10.4,0c0-10.5,0-15.8,0-26.4c-6.2,0-9.3,0-15.5,0c0,10.5,0,15.8,0,26.4
			c-4.2,0-6.3,0-10.5,0c0-21,0-42.2,0-63.2c4.2,0,6.3,0,10.5,0c0,10,0,15.1,0,25.1c6.2,0,9.3,0,15.5,0c0-10,0-15.1,0-25.1
			c4.2,0,6.3,0,10.4,0C571.5,147,571.5,168.1,571.5,189.1z"/>
		<path class="st0" d="M593.3,190c-5,0-8.9-2.1-12.1-6.4c-3.2-4.3-4.6-9.9-4.6-16.8c0-0.5,0-0.8,0-1.2c0-4.9,0.7-9.1,1.8-12.8
			c1.2-3.7,3-6.6,5.4-8.5c2.4-2,5.1-3,8.4-3c4.6,0,8.2,2.1,10.8,6.2c2.6,4.1,3.9,9.9,3.9,17.1c0,2.2,0,3.4,0,5.7c-8,0-12,0-20,0
			c0.4,2.6,1.2,4.7,2.4,6.2s2.8,2.2,4.7,2.2c3.2,0,5.7-1.6,7.5-4.9c1.8,3.2,2.8,4.7,4.6,7.9c-1.3,2.5-3,4.5-5.4,6
			C598.5,189.2,596,190,593.3,190z M592.2,152.6c-2.9,0-4.7,2.9-5.3,8.5c4.1,0,6,0,10.1,0c0-0.4,0-0.7,0-1.2c0-2.4-0.4-4.2-1.2-5.4
			C595.1,153.2,593.7,152.6,592.2,152.6z"/>
		<path class="st0" d="M629.2,189.1c-0.4-0.9-0.7-2.4-0.9-4.2c-1.8,3.4-4.5,5.1-7.8,5.1c-3,0-5.7-1.3-7.8-4.1
			c-2.1-2.6-3.2-6-3.2-10.1c0-5.1,1.3-8.9,3.9-11.6s6.3-3.9,11.3-3.9c1.2,0,1.8,0,3.2,0c0-1.1,0-1.4,0-2.5c0-4.3-1.3-6.4-3.8-6.4
			c-2.4,0-3.5,1.7-3.5,5.1c-4.1,0-6,0-10.1,0c0-4.6,1.3-8.3,3.9-11c2.6-2.9,6-4.2,10.1-4.2s7.4,1.4,9.7,4.3c2.4,2.9,3.7,7,3.7,12
			c0,8.3,0,12.5,0,20.8c0,4.3,0.5,7.6,1.3,9.9c0,0.3,0,0.4,0,0.8C635.3,189.1,633.3,189.1,629.2,189.1z M622.9,179.6
			c1.3,0,2.2-0.4,3.2-1.2c0.8-0.8,1.4-1.7,1.8-2.6c0-3,0-4.5,0-7.5c-1.2,0-1.7,0-2.9,0c-3.5,0-5.3,2.2-5.3,6.8
			c0,1.3,0.3,2.4,0.9,3.3C621.2,179.2,622,179.6,622.9,179.6z"/>
		<path class="st0" d="M654.2,189.1c-4.1,0-6,0-10.1,0c0-22.2,0-44.4,0-66.7c4.1,0,6,0,10.1,0C654.2,144.7,654.2,166.9,654.2,189.1z
			"/>
		<path class="st0" d="M672.1,130.5c0,4.7,0,7,0,11.7c2.1,0,3.2,0,5.4,0c0,4.1,0,6,0,10.1c-2.1,0-3.2,0-5.4,0c0,8.5,0,12.9,0,21.4
			c0,1.7,0.3,3,0.7,3.7s1.3,1.1,2.6,1.1c1.1,0,1.8-0.1,2.5-0.3c0,4.2,0,6.3,0,10.5c-1.8,0.8-3.7,1.3-5.7,1.3c-3.4,0-6-1.2-7.6-3.5
			c-1.7-2.4-2.5-5.9-2.5-10.8c0-9.3,0-13.9,0-23.3c-1.7,0-2.5,0-4.1,0c0-4.1,0-6,0-10.1c1.7,0,2.5,0,4.1,0c0-4.7,0-7,0-11.7
			C666.1,130.5,668,130.5,672.1,130.5z"/>
		<path class="st0" d="M691.3,147.2c2.1-3.9,4.9-5.9,8.3-5.9c3.5,0,6.3,1.6,8,4.6c1.8,3,2.8,7.6,2.8,13.5c0,11.8,0,17.7,0,29.7
			c-4.1,0-6,0-10.1,0c0-11.7,0-17.6,0-29.3c0-2.5-0.4-4.3-1.1-5.5s-1.8-1.7-3.5-1.7c-2.1,0-3.5,0.9-4.3,2.9c0,13.5,0,20.2,0,33.7
			c-4.1,0-6,0-10.1,0c0-22.2,0-44.4,0-66.7c4.1,0,6,0,10.1,0C691.3,132.3,691.3,137.3,691.3,147.2z"/>
	</g>
</g>
<line class="st1" x1="350.1" y1="202" x2="711" y2="202"/>
<path class="st2" d="M164.4,299.4c-52.7-9.1-95.7-50.1-106.2-102.8c-10.1-50.4,4.3-93.3,42.3-128.1c17.5-16,38.5-25.9,61.9-30.2
	c1.2-0.3,2.8-1.7,3.3,0.8c0.4,2.2-1.1,2.5-2.6,2.8c-14.6,3.2-28.3,8.8-40.5,17.5c-29.2,20.5-46.3,48.5-49.8,84.1
	c-3.4,33.4,7.1,62.2,29.1,87.2c15.1,17.2,33.7,29.1,55.5,35.8c2.4,0.8,3.3,1.3,2,3.9C154.4,281.1,156.6,290.5,164.4,299.4z"/>
<path class="st2" d="M317.5,167.4c-0.1,65.3-45.8,120-108.5,131.5c-1.8,0.4-3.8,1.3-5.8-0.1c-1.7-1.2-2.2-2.1-0.1-3.5
	c3.9-3,7.6-6.3,10.3-10.6c2.8-4.3,4.1-9.1,2.8-14.1c-0.8-3,0.1-3.9,2.9-4.9c38.4-12.8,64.3-38.1,76.4-76.6
	c20.1-64.2-19.1-131.1-85.2-146.7c-0.4-0.1-0.9-0.1-1.4-0.3c-1.6-0.3-2.1-1.3-2-2.8c0.3-2,1.7-1.3,2.8-1.1
	c11.4,2.4,22.5,5.7,33,10.9c42.1,21.4,66.5,55.6,73.9,102.2C317.5,157,317.8,162.9,317.5,167.4z"/>
<g>
	<g>
		<path class="st2" d="M368,246.7c1.2-1.3,1.8-1.8,3.2-3.2c3.2,2.6,7.4,4.3,11.8,4.3c5.5,0,8.8-2.4,8.8-5.5c0-3.8-3.2-4.9-7.2-6.3
			c-2.4-0.9-3.5-1.3-5.9-2.2c-4.1-1.4-8.7-3.9-8.7-9.1c0-5.4,5.5-9.3,13.3-9.3c5.1,0,9.6,1.8,12.5,4.3c-1.1,1.2-1.6,1.7-2.8,2.9
			c-2.6-2.1-5.8-3.3-10-3.3c-4.7,0-7.9,2-7.9,5.1c0,3.4,3.8,4.6,7.2,5.8c2.2,0.9,3.4,1.3,5.7,2.2c5,1.7,8.9,4.2,8.9,9.5
			c0,5.7-5.4,10.1-14.3,10.1C376.8,251.9,371.7,249.8,368,246.7z"/>
		<path class="st2" d="M404.7,238.3c0-8.8,7-13.8,14.9-13.8s14.9,5,14.9,13.8c0,8.7-7,13.7-14.9,13.7
			C411.7,251.9,404.7,247,404.7,238.3z M429.1,238.3c0-6-3.8-10.1-9.6-10.1c-5.8,0-9.6,4.1-9.6,10.1s3.8,10,9.6,10
			S429.1,244.2,429.1,238.3z"/>
		<path class="st2" d="M453.3,242.5c0-10.4,0-15.6,0-26c-4.2,0-6.4,0-10.6,0c0-1.4,0-2.2,0-3.7c6.3,0,9.5,0,15.8,0c0,12,0,18,0,30
			c0,3.8,2.4,5.4,5.9,5.4c1.7,0,3.5-0.4,5.7-1.2c0.5,1.3,0.8,2,1.3,3.3c-2.8,1.1-4.7,1.6-8,1.6C456.9,251.9,453.3,248.7,453.3,242.5
			z"/>
		<path class="st2" d="M480,241.4c0-6.6,0-9.7,0-16.3c2.1,0,3,0,5.1,0c0,6.3,0,9.5,0,15.6c0,4.9,2,7.2,7,7.2c3.4,0,6-1.4,9.3-4.9
			c0-7.2,0-10.9,0-18.1c2.1,0,3,0,5.1,0c0,10.5,0,15.8,0,26.2c-1.7,0-2.5,0-4.2,0c-0.1-1.8-0.3-2.8-0.4-4.6c-0.1,0-0.1,0-0.3,0
			c-3,3-6.6,5.3-11.2,5.3C483.3,251.9,480,248.3,480,241.4z"/>
		<path class="st2" d="M525.1,241.2c0-5,0-7.5,0-12.4c-3.4,0-5.1,0-8.5,0c0-1.3,0-2,0-3.3c3.5-0.1,5.3-0.1,8.7-0.3
			c0.3-3.4,0.4-5,0.7-8.4c1.7,0,2.5,0,4.2,0c0,3.4,0,5,0,8.4c5.9,0,8.8,0,14.7,0c0,1.4,0,2.1,0,3.5c-5.9,0-8.8,0-14.7,0
			c0,5,0,7.5,0,12.5c0,4.7,1.8,7.1,7.6,7.1c2.8,0,5-0.5,7.2-1.2c0.4,1.3,0.7,2,1.1,3.3c-2.8,0.9-5.7,1.6-9.5,1.6
			C528,251.9,525.1,247.6,525.1,241.2z"/>
		<path class="st2" d="M569,228.7c-5.5,0-8.4,0-13.9,0c0-1.4,0-2.1,0-3.5c7.6,0,11.4,0,19.1,0c0,10.5,0,15.8,0,26.2
			c-2.1,0-3,0-5.1,0C569,242.2,569,237.8,569,228.7z M567.1,216.2c0-2.1,1.7-3.4,4.1-3.4s4.1,1.4,4.1,3.4c0,2.1-1.7,3.4-4.1,3.4
			C568.8,219.6,567.1,218.3,567.1,216.2z"/>
		<path class="st2" d="M590.5,238.3c0-8.8,7-13.8,14.9-13.8s14.9,5,14.9,13.8c0,8.7-7,13.7-14.9,13.7
			C597.3,251.9,590.5,247,590.5,238.3z M614.9,238.3c0-6-3.8-10.1-9.6-10.1s-9.6,4.1-9.6,10.1s3.8,10,9.6,10
			C611,248.3,614.9,244.2,614.9,238.3z"/>
		<path class="st2" d="M629.6,225.1c1.7,0,2.5,0,4.2,0c0.1,1.7,0.3,2.6,0.4,4.5c0.1,0,0.1,0,0.3,0c3.2-2.9,6.6-5.1,11.3-5.1
			c7.1,0,10.4,3.7,10.4,10.5c0,6.6,0,9.7,0,16.3c-2.1,0-3,0-5.1,0c0-6.3,0-9.5,0-15.6c0-5-2-7.2-6.8-7.2c-3.5,0-6,1.6-9.5,4.7
			c0,7.4,0,10.9,0,18.3c-2.1,0-3,0-5.1,0C629.6,240.8,629.6,235.5,629.6,225.1z"/>
		<path class="st2" d="M665.4,247.9c0.9-1.2,1.4-1.8,2.4-3c3.4,2.1,7.5,3.5,13,3.5c5.1,0,7.5-1.8,7.5-4.1c0-2-1.2-3.4-9.3-4.9
			c-7.9-1.4-11.7-3.7-11.7-7.6c0-4.2,4.2-7.5,12.5-7.5c4.6,0,9.2,1.6,12.1,3.3c-1.1,1.2-1.4,1.7-2.5,2.9c-2.8-1.7-6.3-2.8-10.1-2.8
			c-5.1,0-7,1.8-7,3.8c0,2.2,2.6,3.3,8.8,4.3c10,1.8,12.4,4.1,12.4,8.2c0,4.2-4.7,7.9-13.4,7.9C674.3,251.9,669.1,250.1,665.4,247.9
			z"/>
	</g>
</g>
</svg>
